<svg aria-hidden="true" style="width:0;height:0;position:absolute;overflow:hidden" xmlns="http://www.w3.org/2000/svg"><defs><symbol id="icon-Call" viewBox="0 0 32 32"><path fill="#fff" style="fill:var(--color1,#fff)" d="M15.376 16.63c5.319 5.317 6.525-.834 9.912 2.55 3.265 3.264 5.141 3.918 1.005 8.053-.518.416-3.81 5.426-15.379-6.14C-.657 9.525 4.35 6.23 4.767 5.712c4.147-4.147 4.789-2.259 8.054 1.005 3.387 3.386-2.762 4.596 2.556 9.913z"/></symbol><symbol id="icon-face-book" viewBox="0 0 32 32"><path fill="#fff" style="fill:var(--color1,#fff)" d="m22.997 17.823.772-5.303H19.06V9.04c0-1.492.695-2.9 2.779-2.9H24V1.665s-1.93-.331-3.86-.331c-3.937 0-6.484 2.569-6.484 7.126v4.06H9.333v5.303h4.323v12.844h5.326V17.823h4.014z"/></symbol><symbol id="icon-instagram" viewBox="0 0 32 32"><path fill="#fff" style="fill:var(--color1,#fff)" d="M15.989 8.444c-4.16 0-7.53 3.367-7.53 7.519 0 4.154 3.37 7.52 7.53 7.52 4.157 0 7.531-3.367 7.531-7.52 0-4.152-3.373-7.519-7.531-7.519zm0 12.404a4.889 4.889 0 0 1-4.893-4.884c0-2.698 2.191-4.884 4.893-4.884s4.89 2.186 4.89 4.884a4.886 4.886 0 0 1-4.89 4.884zM23.819 9.921c.97 0 1.756-.785 1.756-1.753s-.786-1.753-1.756-1.753-1.756.785-1.756 1.753.786 1.753 1.756 1.753z"/><path fill="#fff" style="fill:var(--color1,#fff)" d="M29.89 6.385a7.5 7.5 0 0 0-4.289-4.281 10.769 10.769 0 0 0-3.561-.683c-1.569-.068-2.065-.088-6.043-.088s-4.488 0-6.043.088a10.695 10.695 0 0 0-3.558.683 7.486 7.486 0 0 0-4.289 4.281 10.719 10.719 0 0 0-.683 3.555c-.07 1.565-.091 2.061-.091 6.034 0 3.972 0 4.477.091 6.034.024 1.217.254 2.417.683 3.557a7.503 7.503 0 0 0 4.291 4.281c1.134.442 2.337.693 3.559.732 1.569.068 2.065.089 6.043.089s4.488 0 6.043-.089a10.781 10.781 0 0 0 3.561-.681 7.51 7.51 0 0 0 4.289-4.282c.428-1.138.658-2.339.683-3.555.07-1.565.091-2.061.091-6.034s0-4.477-.091-6.034a10.677 10.677 0 0 0-.686-3.606zm-1.984 15.502a8.174 8.174 0 0 1-.507 2.745 4.86 4.86 0 0 1-2.789 2.783 8.12 8.12 0 0 1-2.72.506c-1.547.072-1.984.089-5.952.089-3.971 0-4.377 0-5.954-.089a8.074 8.074 0 0 1-2.719-.506 4.86 4.86 0 0 1-2.8-2.783 8.268 8.268 0 0 1-.507-2.714c-.07-1.545-.086-1.981-.086-5.943 0-3.963 0-4.368.086-5.944a8.168 8.168 0 0 1 .507-2.744 4.861 4.861 0 0 1 2.8-2.784 8.173 8.173 0 0 1 2.719-.506c1.549-.07 1.984-.089 5.954-.089s4.377 0 5.952.089a8.07 8.07 0 0 1 2.72.506 4.87 4.87 0 0 1 2.789 2.784c.319.868.492 1.787.507 2.714.07 1.547.088 1.981.088 5.944 0 3.962 0 4.388-.07 5.943h-.018v-.002z"/></symbol><symbol id="icon-telegram" viewBox="0 0 32 32"><path fill="#fff" style="fill:var(--color1,#fff)" d="M31.05 4.52c-.124-.321-.248-.401-.413-.441-.455-.2-1.199.04-1.199.04s-26.08 9.098-27.568 10.1c-.331.2-.413.361-.496.481-.248.721.537 1.042.537 1.042l6.737 2.124s.248.04.331 0c1.529-.922 15.375-9.418 16.16-9.699.124-.04.207 0 .207.08-.331 1.082-12.358 11.462-12.358 11.462s-.041.04-.083.12l-.62 6.453s-.248 1.964 1.777 0c1.447-1.403 2.852-2.565 3.513-3.126 2.356 1.523 4.836 3.246 5.91 4.128.537.441.992.521 1.364.521 1.033-.04 1.323-1.122 1.323-1.122s4.712-18.556 4.877-21.041c0-.24.041-.401.041-.561 0-.24 0-.441-.041-.561z"/></symbol><symbol id="icon-logo" viewBox="0 0 198 32"><path fill="#957df3" style="fill:var(--color2,#957df3)" d="M5.229 20.394h17.467a.998.998 0 0 0 .994-1.002V2.035a.997.997 0 0 0-.994-1.002H5.229C2.353 1.033 0 3.407 0 6.309v10.024c0 .58.471 1.055.994 1.055s.994-.475.994-1.002V6.31c0-1.794 1.412-3.218 3.19-3.218h16.473v15.299H5.23c-2.876 0-5.229 2.374-5.229 5.276s2.353 5.276 5.229 5.276h2.615v3.06l4.184-1.952 4.236 1.899v-3.06h6.432a.998.998 0 0 0 .994-1.002.997.997 0 0 0-.994-1.002h-6.432V24.67h6.432a.998.998 0 0 0 .994-1.002.997.997 0 0 0-.994-1.002H5.178a.998.998 0 0 0-.994 1.002c0 .58.471 1.002.994 1.002h2.615v2.216H5.178c-1.778 0-3.19-1.424-3.19-3.218.052-1.794 1.464-3.271 3.242-3.271zm8.995 4.273v4.168l-2.196-1.002-2.196 1.002v-4.168h4.393z"/><path fill="#3f3f3f" style="fill:var(--color3,#3f3f3f)" d="M39.838 23.057c-1.701 0-3.138-.38-4.311-1.14s-2.007-1.809-2.502-3.146l2.923-1.709c.677 1.767 2.007 2.651 3.989 2.651.925 0 1.619-.165 2.081-.495s.694-.776.694-1.338c0-.611-.273-1.082-.818-1.412-.545-.347-1.519-.718-2.923-1.115-1.519-.462-2.717-.999-3.592-1.61-1.09-.809-1.635-1.998-1.635-3.567 0-1.586.553-2.833 1.66-3.741 1.107-.941 2.453-1.412 4.038-1.412 1.387 0 2.618.339 3.691 1.016s1.908 1.635 2.502 2.874l-2.874 1.66c-.694-1.486-1.8-2.23-3.32-2.23-.694 0-1.247.165-1.66.495a1.482 1.482 0 0 0-.619 1.239c0 .545.223.991.669 1.338.495.347 1.371.71 2.626 1.09l1.189.396c.215.066.586.206 1.115.421.495.182.859.355 1.09.52.809.495 1.354 1.007 1.635 1.536.429.694.644 1.511.644 2.453 0 1.602-.586 2.874-1.759 3.815s-2.684 1.412-4.534 1.412zM61.912 9.976c1.42 0 2.552.462 3.394 1.387.859.925 1.288 2.164 1.288 3.716v7.63h-3.196v-7.407c0-.743-.182-1.321-.545-1.734s-.875-.619-1.536-.619c-.727 0-1.297.239-1.709.718-.396.479-.595 1.173-.595 2.081v6.962h-3.196v-7.407c0-.743-.182-1.321-.545-1.734s-.875-.619-1.536-.619c-.71 0-1.28.248-1.709.743-.413.479-.619 1.164-.619 2.056v6.962h-3.196V10.324h3.196v1.313c.743-1.107 1.891-1.66 3.444-1.66 1.536 0 2.659.595 3.369 1.784.809-1.189 2.04-1.784 3.691-1.784zm16.811 1.808v-1.462h3.196v12.387h-3.196v-1.462c-.958 1.206-2.304 1.809-4.038 1.809-1.652 0-3.072-.628-4.261-1.883-1.173-1.272-1.759-2.824-1.759-4.658 0-1.817.586-3.361 1.759-4.633 1.189-1.272 2.61-1.908 4.261-1.908 1.734 0 3.08.603 4.038 1.809zm-5.897 7.259c.644.644 1.462.966 2.453.966s1.809-.322 2.453-.966c.661-.661.991-1.503.991-2.527s-.33-1.858-.991-2.502c-.644-.661-1.462-.991-2.453-.991s-1.809.33-2.453.991c-.644.644-.966 1.478-.966 2.502s.322 1.866.966 2.527zm15.186-8.72v2.131c.281-.776.76-1.363 1.437-1.759.677-.413 1.453-.619 2.329-.619v3.567c-.974-.132-1.85.066-2.626.595-.76.512-1.14 1.363-1.14 2.552v5.921h-3.196V10.324h3.196zm13.059 0v3.072h-2.799v5.153c0 .429.107.743.322.941s.529.314.941.347c.413.017.925.008 1.536-.025v2.899c-2.164.248-3.708.05-4.633-.595-.908-.661-1.363-1.85-1.363-3.567v-5.153H92.92v-3.072h2.155V7.821l3.196-.966v3.468h2.799zm15.8 12.387h-3.691l-3.493-6.02h-2.601v6.02h-3.419V5.368h6.937c1.602 0 2.965.562 4.088 1.685s1.685 2.477 1.685 4.063c0 1.074-.306 2.073-.917 2.998a5.764 5.764 0 0 1-2.428 2.056l3.84 6.54zm-6.268-14.146h-3.518v5.128h3.518c.644 0 1.197-.248 1.66-.743.462-.512.694-1.123.694-1.833s-.231-1.313-.694-1.809c-.462-.495-1.016-.743-1.66-.743zm19.544 9.265h-9.34c.413 1.553 1.577 2.329 3.493 2.329 1.222 0 2.147-.413 2.775-1.239l2.577 1.486c-1.222 1.767-3.022 2.651-5.401 2.651-2.048 0-3.691-.619-4.93-1.858s-1.858-2.799-1.858-4.682c0-1.85.611-3.402 1.833-4.658 1.206-1.255 2.775-1.883 4.707-1.883 1.833 0 3.328.628 4.484 1.883 1.189 1.255 1.784 2.808 1.784 4.658 0 .347-.041.785-.124 1.313zm-9.389-2.477h6.317c-.182-.809-.553-1.429-1.115-1.858-.545-.429-1.197-.644-1.957-.644-.859 0-1.569.223-2.131.669-.562.429-.933 1.041-1.115 1.833zm21.062-3.568v-1.462h3.196v12.387h-3.196v-1.462c-.958 1.206-2.304 1.809-4.038 1.809-1.652 0-3.072-.628-4.261-1.883-1.173-1.272-1.759-2.824-1.759-4.658 0-1.817.586-3.361 1.759-4.633 1.189-1.272 2.61-1.908 4.261-1.908 1.734 0 3.08.603 4.038 1.809zm-5.896 7.259c.644.644 1.462.966 2.453.966s1.809-.322 2.453-.966c.661-.661.991-1.503.991-2.527s-.33-1.858-.991-2.502c-.644-.661-1.462-.991-2.453-.991s-1.809.33-2.453.991c-.644.644-.966 1.478-.966 2.502s.322 1.866.966 2.527zm21.379-7.259V5.367h3.196v17.342h-3.196v-1.462c-.941 1.206-2.279 1.809-4.013 1.809-1.668 0-3.097-.628-4.286-1.883-1.173-1.272-1.759-2.824-1.759-4.658 0-1.817.586-3.361 1.759-4.633 1.189-1.272 2.618-1.908 4.286-1.908 1.734 0 3.072.603 4.013 1.809zm-5.897 7.259c.677.644 1.503.966 2.477.966.991 0 1.809-.322 2.453-.966.644-.661.966-1.503.966-2.527s-.322-1.858-.966-2.502c-.644-.661-1.462-.991-2.453-.991s-1.817.33-2.477.991c-.644.644-.966 1.478-.966 2.502s.322 1.866.966 2.527zm13.6-10.207a1.94 1.94 0 0 1-1.387-.57c-.38-.396-.57-.859-.57-1.387s.19-.991.57-1.387c.396-.396.859-.595 1.387-.595.545 0 1.007.198 1.387.595.396.396.595.859.595 1.387s-.198.991-.595 1.387c-.38.38-.842.57-1.387.57zm1.611 13.874h-3.196V10.323h3.196V22.71zm9.812-12.734c1.371 0 2.486.454 3.345 1.363.892.925 1.338 2.18 1.338 3.766v7.606h-3.196v-7.209c0-.809-.223-1.437-.669-1.883-.429-.446-1.024-.669-1.784-.669-.842 0-1.511.264-2.007.793-.479.512-.718 1.272-.718 2.279v6.689h-3.196V10.324h3.196v1.387c.76-1.156 1.99-1.734 3.691-1.734zm16.901 1.883v-1.536h3.122v11.793c0 1.899-.636 3.361-1.908 4.385-1.255 1.007-2.775 1.511-4.558 1.511-2.808 0-4.765-1.007-5.871-3.022l2.725-1.561c.611 1.156 1.693 1.734 3.245 1.734 1.007 0 1.8-.264 2.378-.793s.867-1.28.867-2.254v-1.338c-.941 1.255-2.263 1.883-3.964 1.883-1.751 0-3.221-.611-4.41-1.833-1.173-1.255-1.759-2.758-1.759-4.509s.595-3.245 1.784-4.484c1.189-1.239 2.651-1.858 4.385-1.858 1.701 0 3.022.628 3.964 1.883zm-.991 6.912c.661-.644.991-1.462.991-2.453s-.33-1.792-.991-2.403c-.644-.644-1.47-.966-2.477-.966-.991 0-1.825.322-2.502.966-.644.611-.966 1.412-.966 2.403s.322 1.809.966 2.453c.661.628 1.495.941 2.502.941s1.833-.314 2.477-.941z"/></symbol></defs></svg>