<svg aria-hidden="true" style="position: absolute; width: 0; height: 0; overflow: hidden;" version="1.1" xmlns="http://www.w3.org/2000/svg" xmlns:xlink="http://www.w3.org/1999/xlink">
<defs>
<symbol id="icon-Call" viewBox="0 0 32 32">
<path fill="#fff" style="fill: var(--color1, #fff)" d="M15.376 16.63c5.319 5.317 6.525-0.834 9.912 2.55 3.265 3.264 5.141 3.918 1.005 8.053-0.518 0.416-3.81 5.426-15.379-6.14-11.571-11.568-6.564-14.863-6.147-15.381 4.147-4.147 4.789-2.259 8.054 1.005 3.387 3.386-2.762 4.596 2.556 9.913z"></path>
</symbol>
<symbol id="icon-face-book" viewBox="0 0 32 32">
<path fill="#fff" style="fill: var(--color1, #fff)" d="M22.997 17.823l0.772-5.303h-4.709v-3.48c0-1.492 0.695-2.9 2.779-2.9h2.161v-4.475c0 0-1.93-0.331-3.86-0.331-3.937 0-6.484 2.569-6.484 7.126v4.060h-4.323v5.303h4.323v12.844h5.326v-12.844h4.014z"></path>
</symbol>
<symbol id="icon-instagram" viewBox="0 0 32 32">
<path fill="#fff" style="fill: var(--color1, #fff)" d="M15.989 8.444c-4.16 0-7.53 3.367-7.53 7.519 0 4.154 3.37 7.52 7.53 7.52 4.157 0 7.531-3.367 7.531-7.52 0-4.152-3.373-7.519-7.531-7.519zM15.989 20.848c-2.702 0-4.893-2.187-4.893-4.884 0-2.698 2.191-4.884 4.893-4.884s4.89 2.186 4.89 4.884c0 2.697-2.188 4.884-4.89 4.884z"></path>
<path fill="#fff" style="fill: var(--color1, #fff)" d="M23.819 9.921c0.97 0 1.756-0.785 1.756-1.753s-0.786-1.753-1.756-1.753c-0.97 0-1.756 0.785-1.756 1.753s0.786 1.753 1.756 1.753z"></path>
<path fill="#fff" style="fill: var(--color1, #fff)" d="M29.89 6.385c-0.764-1.966-2.32-3.521-4.289-4.281-1.139-0.428-2.342-0.657-3.561-0.683-1.569-0.068-2.065-0.088-6.043-0.088s-4.488 0-6.043 0.088c-1.215 0.024-2.419 0.254-3.558 0.683-1.971 0.76-3.527 2.314-4.289 4.281-0.428 1.138-0.658 2.339-0.683 3.555-0.070 1.565-0.091 2.061-0.091 6.034 0 3.972 0 4.477 0.091 6.034 0.024 1.217 0.254 2.417 0.683 3.557 0.764 1.965 2.32 3.52 4.291 4.281 1.134 0.442 2.337 0.693 3.559 0.732 1.569 0.068 2.065 0.089 6.043 0.089s4.488 0 6.043-0.089c1.217-0.024 2.421-0.255 3.561-0.681 1.969-0.763 3.525-2.316 4.289-4.282 0.428-1.138 0.658-2.339 0.683-3.555 0.070-1.565 0.091-2.061 0.091-6.034s0-4.477-0.091-6.034c-0.021-1.233-0.249-2.454-0.686-3.606zM27.906 21.887c-0.011 0.937-0.181 1.865-0.507 2.745-0.497 1.28-1.508 2.292-2.789 2.783-0.871 0.324-1.79 0.493-2.72 0.506-1.547 0.072-1.984 0.089-5.952 0.089-3.971 0-4.377 0-5.954-0.089-0.927-0.011-1.849-0.182-2.719-0.506-1.285-0.49-2.303-1.501-2.8-2.783-0.319-0.869-0.492-1.787-0.507-2.714-0.070-1.545-0.086-1.981-0.086-5.943 0-3.963 0-4.368 0.086-5.944 0.011-0.937 0.181-1.864 0.507-2.744 0.497-1.283 1.515-2.293 2.8-2.784 0.87-0.322 1.792-0.493 2.719-0.506 1.549-0.070 1.984-0.089 5.954-0.089s4.377 0 5.952 0.089c0.93 0.011 1.849 0.182 2.72 0.506 1.28 0.493 2.292 1.504 2.789 2.784 0.319 0.868 0.492 1.787 0.507 2.714 0.070 1.547 0.088 1.981 0.088 5.944 0 3.962 0 4.388-0.070 5.943h-0.018v-0.002z"></path>
</symbol>
<symbol id="icon-telegram" viewBox="0 0 32 32">
<path fill="#fff" style="fill: var(--color1, #fff)" d="M31.050 4.52c-0.124-0.321-0.248-0.401-0.413-0.441-0.455-0.2-1.199 0.040-1.199 0.040s-26.080 9.098-27.568 10.1c-0.331 0.2-0.413 0.361-0.496 0.481-0.248 0.721 0.537 1.042 0.537 1.042l6.737 2.124c0 0 0.248 0.040 0.331 0 1.529-0.922 15.375-9.418 16.16-9.699 0.124-0.040 0.207 0 0.207 0.080-0.331 1.082-12.358 11.462-12.358 11.462s-0.041 0.040-0.083 0.12l-0.62 6.453c0 0-0.248 1.964 1.777 0 1.447-1.403 2.852-2.565 3.513-3.126 2.356 1.523 4.836 3.246 5.91 4.128 0.537 0.441 0.992 0.521 1.364 0.521 1.033-0.040 1.323-1.122 1.323-1.122s4.712-18.556 4.877-21.041c0-0.24 0.041-0.401 0.041-0.561 0-0.24 0-0.441-0.041-0.561z"></path>
</symbol>
<symbol id="icon-logo" viewBox="0 0 198 32">
<path fill="#957df3" style="fill: var(--color2, #957df3)" d="M5.229 20.394h17.467c0.575 0 0.994-0.475 0.994-1.002v-17.357c0-0.58-0.471-1.002-0.994-1.002h-17.467c-2.876 0-5.229 2.374-5.229 5.276v10.024c0 0.58 0.471 1.055 0.994 1.055s0.994-0.475 0.994-1.002v-10.076c0-1.794 1.412-3.218 3.19-3.218h16.473v15.299h-16.421c-2.876 0-5.229 2.374-5.229 5.276s2.353 5.276 5.229 5.276h2.615v3.060l4.184-1.952 4.236 1.899v-3.060h6.432c0.575 0 0.994-0.475 0.994-1.002 0-0.58-0.471-1.002-0.994-1.002h-6.432v-2.216h6.432c0.575 0 0.994-0.475 0.994-1.002 0-0.58-0.471-1.002-0.994-1.002h-17.519c-0.575 0-0.994 0.475-0.994 1.002 0 0.58 0.471 1.002 0.994 1.002h2.615v2.216h-2.615c-1.778 0-3.19-1.424-3.19-3.218 0.052-1.794 1.464-3.271 3.242-3.271zM14.224 24.667v4.168l-2.196-1.002-2.196 1.002v-4.168h4.393z"></path>
<path fill="#3f3f3f" style="fill: var(--color3, #3f3f3f)" d="M39.838 23.057c-1.701 0-3.138-0.38-4.311-1.14s-2.007-1.809-2.502-3.146l2.923-1.709c0.677 1.767 2.007 2.651 3.989 2.651 0.925 0 1.619-0.165 2.081-0.495s0.694-0.776 0.694-1.338c0-0.611-0.273-1.082-0.818-1.412-0.545-0.347-1.519-0.718-2.923-1.115-1.519-0.462-2.717-0.999-3.592-1.61-1.090-0.809-1.635-1.998-1.635-3.567 0-1.586 0.553-2.833 1.66-3.741 1.107-0.941 2.453-1.412 4.038-1.412 1.387 0 2.618 0.339 3.691 1.016s1.908 1.635 2.502 2.874l-2.874 1.66c-0.694-1.486-1.8-2.23-3.32-2.23-0.694 0-1.247 0.165-1.66 0.495-0.413 0.314-0.619 0.727-0.619 1.239 0 0.545 0.223 0.991 0.669 1.338 0.495 0.347 1.371 0.71 2.626 1.090l1.189 0.396c0.215 0.066 0.586 0.206 1.115 0.421 0.495 0.182 0.859 0.355 1.090 0.52 0.809 0.495 1.354 1.007 1.635 1.536 0.429 0.694 0.644 1.511 0.644 2.453 0 1.602-0.586 2.874-1.759 3.815s-2.684 1.412-4.534 1.412zM61.912 9.976c1.42 0 2.552 0.462 3.394 1.387 0.859 0.925 1.288 2.164 1.288 3.716v7.63h-3.196v-7.407c0-0.743-0.182-1.321-0.545-1.734s-0.875-0.619-1.536-0.619c-0.727 0-1.297 0.239-1.709 0.718-0.396 0.479-0.595 1.173-0.595 2.081v6.962h-3.196v-7.407c0-0.743-0.182-1.321-0.545-1.734s-0.875-0.619-1.536-0.619c-0.71 0-1.28 0.248-1.709 0.743-0.413 0.479-0.619 1.164-0.619 2.056v6.962h-3.196v-12.387h3.196v1.313c0.743-1.107 1.891-1.66 3.444-1.66 1.536 0 2.659 0.595 3.369 1.784 0.809-1.189 2.040-1.784 3.691-1.784zM78.723 11.784v-1.462h3.196v12.387h-3.196v-1.462c-0.958 1.206-2.304 1.809-4.038 1.809-1.652 0-3.072-0.628-4.261-1.883-1.173-1.272-1.759-2.824-1.759-4.658 0-1.817 0.586-3.361 1.759-4.633 1.189-1.272 2.61-1.908 4.261-1.908 1.734 0 3.080 0.603 4.038 1.809zM72.826 19.043c0.644 0.644 1.462 0.966 2.453 0.966s1.809-0.322 2.453-0.966c0.661-0.661 0.991-1.503 0.991-2.527s-0.33-1.858-0.991-2.502c-0.644-0.661-1.462-0.991-2.453-0.991s-1.809 0.33-2.453 0.991c-0.644 0.644-0.966 1.478-0.966 2.502s0.322 1.866 0.966 2.527zM88.012 10.323v2.131c0.281-0.776 0.76-1.363 1.437-1.759 0.677-0.413 1.453-0.619 2.329-0.619v3.567c-0.974-0.132-1.85 0.066-2.626 0.595-0.76 0.512-1.14 1.363-1.14 2.552v5.921h-3.196v-12.387h3.196zM101.071 10.323v3.072h-2.799v5.153c0 0.429 0.107 0.743 0.322 0.941s0.529 0.314 0.941 0.347c0.413 0.017 0.925 0.008 1.536-0.025v2.899c-2.164 0.248-3.708 0.050-4.633-0.595-0.908-0.661-1.363-1.85-1.363-3.567v-5.153h-2.155v-3.072h2.155v-2.502l3.196-0.966v3.468h2.799zM116.871 22.71h-3.691l-3.493-6.020h-2.601v6.020h-3.419v-17.342h6.937c1.602 0 2.965 0.562 4.088 1.685s1.685 2.477 1.685 4.063c0 1.074-0.306 2.073-0.917 2.998-0.611 0.908-1.42 1.594-2.428 2.056l3.84 6.54zM110.603 8.564h-3.518v5.128h3.518c0.644 0 1.197-0.248 1.66-0.743 0.462-0.512 0.694-1.123 0.694-1.833s-0.231-1.313-0.694-1.809c-0.462-0.495-1.016-0.743-1.66-0.743zM130.147 17.829h-9.34c0.413 1.553 1.577 2.329 3.493 2.329 1.222 0 2.147-0.413 2.775-1.239l2.577 1.486c-1.222 1.767-3.022 2.651-5.401 2.651-2.048 0-3.691-0.619-4.93-1.858s-1.858-2.799-1.858-4.682c0-1.85 0.611-3.402 1.833-4.658 1.206-1.255 2.775-1.883 4.707-1.883 1.833 0 3.328 0.628 4.484 1.883 1.189 1.255 1.784 2.808 1.784 4.658 0 0.347-0.041 0.785-0.124 1.313zM120.758 15.352h6.317c-0.182-0.809-0.553-1.429-1.115-1.858-0.545-0.429-1.197-0.644-1.957-0.644-0.859 0-1.569 0.223-2.131 0.669-0.562 0.429-0.933 1.041-1.115 1.833zM141.82 11.784v-1.462h3.196v12.387h-3.196v-1.462c-0.958 1.206-2.304 1.809-4.038 1.809-1.652 0-3.072-0.628-4.261-1.883-1.173-1.272-1.759-2.824-1.759-4.658 0-1.817 0.586-3.361 1.759-4.633 1.189-1.272 2.61-1.908 4.261-1.908 1.734 0 3.080 0.603 4.038 1.809zM135.924 19.043c0.644 0.644 1.462 0.966 2.453 0.966s1.809-0.322 2.453-0.966c0.661-0.661 0.991-1.503 0.991-2.527s-0.33-1.858-0.991-2.502c-0.644-0.661-1.462-0.991-2.453-0.991s-1.809 0.33-2.453 0.991c-0.644 0.644-0.966 1.478-0.966 2.502s0.322 1.866 0.966 2.527zM157.303 11.784v-6.417h3.196v17.342h-3.196v-1.462c-0.941 1.206-2.279 1.809-4.013 1.809-1.668 0-3.097-0.628-4.286-1.883-1.173-1.272-1.759-2.824-1.759-4.658 0-1.817 0.586-3.361 1.759-4.633 1.189-1.272 2.618-1.908 4.286-1.908 1.734 0 3.072 0.603 4.013 1.809zM151.406 19.043c0.677 0.644 1.503 0.966 2.477 0.966 0.991 0 1.809-0.322 2.453-0.966 0.644-0.661 0.966-1.503 0.966-2.527s-0.322-1.858-0.966-2.502c-0.644-0.661-1.462-0.991-2.453-0.991s-1.817 0.33-2.477 0.991c-0.644 0.644-0.966 1.478-0.966 2.502s0.322 1.866 0.966 2.527zM165.006 8.836c-0.529 0-0.991-0.19-1.387-0.57-0.38-0.396-0.57-0.859-0.57-1.387s0.19-0.991 0.57-1.387c0.396-0.396 0.859-0.595 1.387-0.595 0.545 0 1.007 0.198 1.387 0.595 0.396 0.396 0.595 0.859 0.595 1.387s-0.198 0.991-0.595 1.387c-0.38 0.38-0.842 0.57-1.387 0.57zM166.617 22.71h-3.196v-12.387h3.196v12.387zM176.429 9.976c1.371 0 2.486 0.454 3.345 1.363 0.892 0.925 1.338 2.18 1.338 3.766v7.606h-3.196v-7.209c0-0.809-0.223-1.437-0.669-1.883-0.429-0.446-1.024-0.669-1.784-0.669-0.842 0-1.511 0.264-2.007 0.793-0.479 0.512-0.718 1.272-0.718 2.279v6.689h-3.196v-12.387h3.196v1.387c0.76-1.156 1.99-1.734 3.691-1.734zM193.33 11.859v-1.536h3.122v11.793c0 1.899-0.636 3.361-1.908 4.385-1.255 1.007-2.775 1.511-4.558 1.511-2.808 0-4.765-1.007-5.871-3.022l2.725-1.561c0.611 1.156 1.693 1.734 3.245 1.734 1.007 0 1.8-0.264 2.378-0.793s0.867-1.28 0.867-2.254v-1.338c-0.941 1.255-2.263 1.883-3.964 1.883-1.751 0-3.221-0.611-4.41-1.833-1.173-1.255-1.759-2.758-1.759-4.509s0.595-3.245 1.784-4.484c1.189-1.239 2.651-1.858 4.385-1.858 1.701 0 3.022 0.628 3.964 1.883zM192.339 18.771c0.661-0.644 0.991-1.462 0.991-2.453s-0.33-1.792-0.991-2.403c-0.644-0.644-1.47-0.966-2.477-0.966-0.991 0-1.825 0.322-2.502 0.966-0.644 0.611-0.966 1.412-0.966 2.403s0.322 1.809 0.966 2.453c0.661 0.628 1.495 0.941 2.502 0.941s1.833-0.314 2.477-0.941z"></path>
</symbol>
</defs>
</svg>
